<svg xmlns="http://www.w3.org/2000/svg" width="1542" height="1282" viewBox="0 0 1542 1282">
  <g id="colorPallet" transform="translate(-3227 1899)">
    <g id="Group_48" data-name="Group 48" transform="translate(13 -1)">
      <path id="Union_21" data-name="Union 21" d="M1.741,268H0V87L151.5,0,303,87V268h-1.741L151.5,354Z" transform="translate(3403 -1434)" fill="#336b87"/>
      <path id="Union_19" data-name="Union 19" d="M1.741,268H0V87L151.5,0,303,87V268h-1.741L151.5,354Z" transform="translate(3816 -1434)" fill="#90afc5"/>
      <path id="Union_20" data-name="Union 20" d="M1.741,268H0V87L151.5,0,303,87V268h-1.741L151.5,354Z" transform="translate(4229 -1434)" fill="#2a3132"/>
    </g>
    <g id="Group_50" data-name="Group 50">
      <path id="Union_13" data-name="Union 13" d="M1.741,268H0V87L151.5,0,303,87V268h-1.741L151.5,354Z" transform="translate(3227 -1899)" fill="#90afc5"/>
      <path id="Union_14" data-name="Union 14" d="M1.741,268H0V87L151.5,0,303,87V268h-1.741L151.5,354Z" transform="translate(3640 -1899)" fill="#2a3132"/>
      <path id="Union_16" data-name="Union 16" d="M1.741,268H0V87L151.5,0,303,87V268h-1.741L151.5,354Z" transform="translate(4053 -1899)" fill="#336b87"/>
      <path id="Union_17" data-name="Union 17" d="M1.741,268H0V87L151.5,0,303,87V268h-1.741L151.5,354Z" transform="translate(4466 -1899)" fill="#90afc5"/>
    </g>
    <g id="Group_49" data-name="Group 49">
      <path id="Union_25" data-name="Union 25" d="M1.741,268H0V87L151.5,0,303,87V268h-1.741L151.5,354Z" transform="translate(3227 -971)" fill="#2a3132"/>
      <path id="Union_24" data-name="Union 24" d="M1.741,268H0V87L151.5,0,303,87V268h-1.741L151.5,354Z" transform="translate(3640 -971)" fill="#336b87"/>
      <path id="Union_22" data-name="Union 22" d="M1.741,268H0V87L151.5,0,303,87V268h-1.741L151.5,354Z" transform="translate(4053 -971)" fill="#90afc5"/>
      <path id="Union_23" data-name="Union 23" d="M1.741,268H0V87L151.5,0,303,87V268h-1.741L151.5,354Z" transform="translate(4466 -971)" fill="#2a3132"/>
    </g>
  </g>
</svg>
