<svg xmlns="http://www.w3.org/2000/svg" width="303" height="354" viewBox="0 0 303 354">
  <path id="Subtraction_3" data-name="Subtraction 3" d="M180.626,354.111h0l-71.785-41.223,43.519-59.9,68.047,78.278L180.626,354.11Zm43.316-24.874h0l-69.168-79.57L230.2,145.85l66.683,98.861L260.057,308.5l-36.114,20.739Zm-118.59-18.352h0l-47.72-27.4,44.8-87.927,47.234,54.336-44.315,60.994Zm161.615-6.355,0,0,32.4-56.125,18.241,27.044L266.97,304.527ZM54.159,281.487h0l-23.29-13.375H29.127V111.224L99.6,192.3,54.159,281.487Zm266.933-8.04-19.494-28.9,30.53-52.879v76.444h-1.742l-9.293,5.337ZM152.079,246.57h0l-47.688-54.86L171.843,59.331l55.977,82.99L152.08,246.569Zm147.029-5.712L232.7,142.406,290.32,63.1l41.807,24.008v96.557l-33.018,57.189Zm-197.547-52.4h0L29.127,105.126V87.111L145.5,20.28l23.782,35.259L101.562,188.454Zm128.761-49.577h0l-56.4-83.622L197.175,9.614,286.831,61.1l-56.509,77.777Zm-58.96-87.414h0L148.981,18.283,180.626.111,193.7,7.619,171.363,51.462Z" transform="translate(-29.127 -0.111)" fill="#363636"/>
</svg>
